<?xml version="1.0" standalone="no"?><!DOCTYPE svg PUBLIC "-//W3C//DTD SVG 1.1//EN" "http://www.w3.org/Graphics/SVG/1.1/DTD/svg11.dtd"><svg t="1574864724645" class="icon" viewBox="0 0 1024 1024" version="1.1" xmlns="http://www.w3.org/2000/svg" p-id="3871" xmlns:xlink="http://www.w3.org/1999/xlink" width="200" height="200"><defs><style type="text/css"></style></defs><path d="M774.9683 166.2484c30.72 21.845 58.028 46.593 81.918 74.2359 23.893 27.65 44.3709 57.514 61.4369 89.598 17.068 32.084 30.038 66.047 38.912 101.8849 8.873 35.838 13.31 72.1879 13.31 109.0499 0 63.486-12.1149 123.0438-36.3489 178.6819-24.234 55.6339-57.001 104.1019-98.3009 145.3978-41.303 41.3041-89.77 74.068-145.4029 98.302-55.6319 24.234-115.1959 36.352-178.6747 36.352-62.804 0-122.026-12.118-177.6589-36.352C278.5208 939.1647 229.8849 906.3997 188.245 865.0967c-41.643-41.2979-74.4079-89.7659-98.3009-145.3978-23.894-55.638-35.839-115.1959-35.839-178.6839 0-36.1759 4.265-71.6749 12.8-106.4888s20.649-67.9219 36.3479-99.326c15.7041-31.3989 35.159-60.7529 58.368-88.0558 23.209-27.308 49.1479-51.884 77.822-73.728 15.019-10.923 31.2289-15.018 48.639-12.289 17.4029 2.7351 31.5689 11.265 42.4929 25.599 10.9251 14.3401 15.019 30.38 12.29 48.128-2.7361 17.749-11.265 32.084-25.599 43.009-43.008 31.3989-75.947 69.9658-98.817 115.7048-22.8628 45.738-34.2968 94.8859-34.2968 147.4468 0 45.054 8.5299 87.552 25.599 127.486 17.0639 39.934 40.4429 74.7459 70.1348 104.4398 29.7001 29.7001 64.513 53.25 104.447 70.656s82.4259 26.1079 127.486 26.1079c45.0509 0 87.5448-8.702 127.4778-26.1079s74.752-40.9559 104.4449-70.656c29.6929-29.694 53.2429-64.5059 70.6499-104.4398 17.4111-39.934 26.111-82.432 26.111-127.486 0-53.2419-12.2849-103.5889-36.8589-151.0318-24.576-47.4429-59.05-86.5208-103.4199-117.2388-15.017-10.24-24.064-24.235-27.1329-41.984-3.074-17.749 0.5089-34.133 10.7469-49.153 10.242-14.334 24.236-23.039 41.984-26.1079C743.5704 152.4296 759.9473 156.0084 774.9683 166.2484L774.9683 166.2484zM511.8177 544.0901c-17.7521 0-32.94-6.315-45.569-18.942-12.629-12.63-18.944-27.82-18.944-45.57V90.47654399999999c0-17.749 6.315-33.109 18.944-46.078 12.629-12.971 27.817-19.454 45.569-19.454 18.4279 0 33.9569 6.484 46.5869 19.454 12.629 12.97 18.944 28.329 18.944 46.078v389.102592c0 17.749-6.315 32.939-18.944 45.57C545.7746 537.7751 530.2456 544.0901 511.8177 544.0901L511.8177 544.0901z" p-id="3872" fill="#cdcdcd"></path></svg>