<?xml version="1.0" standalone="no"?><!DOCTYPE svg PUBLIC "-//W3C//DTD SVG 1.1//EN" "http://www.w3.org/Graphics/SVG/1.1/DTD/svg11.dtd"><svg t="1573825635803" class="icon" viewBox="0 0 1024 1024" version="1.1" xmlns="http://www.w3.org/2000/svg" p-id="6301" xmlns:xlink="http://www.w3.org/1999/xlink" width="200" height="200"><defs><style type="text/css"></style></defs><path d="M950.550578 413.547714a400.240485 400.240485 0 0 0-32.902488-160.271674 446.815785 446.815785 0 0 0-92.858132-129.197103 456.686531 456.686531 0 0 0-625.878435 0A387.51819 387.51819 0 0 0 73.150903 413.547714a407.625266 407.625266 0 0 0 125.76062 294.733174A443.013719 443.013719 0 0 0 380.240789 811.5947l-60.686811 139.652781H242.781507a36.55832 36.55832 0 1 0 0 72.385473h537.407301a36.55832 36.55832 0 1 0 0-72.385473H709.265667l-59.955644-144.770946A599.922028 599.922028 0 0 0 731.200659 770.356915a406.162933 406.162933 0 0 0 219.349919-356.809201z m-438.699838-299.778223a50.377365 50.377365 0 0 1 54.83748 51.693464 57.615912 57.615912 0 0 1-54.83748 51.693465 53.30203 53.30203 0 0 1-54.837479-51.693465 57.030979 57.030979 0 0 1 54.837479-51.693464z m0 589.393232a219.934852 219.934852 0 1 1 230.317415-222.347701A225.63795 225.63795 0 0 1 511.85074 703.162723z m0 0V320.470231a165.755422 165.755422 0 1 0 175.479936 165.462956A168.168271 168.168271 0 0 0 511.85074 320.470231z m0 0" p-id="6302" fill="#cdcdcd"></path></svg>