<?xml version="1.0" standalone="no"?><!DOCTYPE svg PUBLIC "-//W3C//DTD SVG 1.1//EN" "http://www.w3.org/Graphics/SVG/1.1/DTD/svg11.dtd"><svg t="1573825597899" class="icon" viewBox="0 0 1024 1024" version="1.1" xmlns="http://www.w3.org/2000/svg" p-id="5519" xmlns:xlink="http://www.w3.org/1999/xlink" width="200" height="200"><defs><style type="text/css"></style></defs><path d="M498.4 8L8 243V1020h183.6V388.6h644.8V1020h181.4V243L498.4 8zM243 724.4h116.4V626h-116.4v98.4z m141.2 0h114.2V626h-114.2v98.4z m-141.2 136.6l116.4-2.2v-96.2h-116.4v98.4z m141.2 0h114.2v-98.6h-114.2v98.6z m141 0h114.2v-98.6h-114.2v98.6z m-282.2 134.4h114.2v-98.6h-114.2v98.6z m141.2 0h114.2v-98.6h-114.2v98.6z m141 0h114.2v-98.6h-114.2v98.6z m141 0h114.2v-98.6h-114.2v98.6z" p-id="5520" fill="#cdcdcd"></path></svg>