<?xml version="1.0" standalone="no"?><!DOCTYPE svg PUBLIC "-//W3C//DTD SVG 1.1//EN" "http://www.w3.org/Graphics/SVG/1.1/DTD/svg11.dtd"><svg t="1573825500845" class="icon" viewBox="0 0 1331 1024" version="1.1" xmlns="http://www.w3.org/2000/svg" p-id="3018" xmlns:xlink="http://www.w3.org/1999/xlink" width="259.9609375" height="200"><defs><style type="text/css"></style></defs><path d="M847.565 182.835c0 101.018-36.352 256-182.016 256s-182.067-154.982-182.067-256A182.426 182.426 0 0 1 665.6 0a182.426 182.426 0 0 1 182.016 182.835zM956.825 512c-24.063-48.23-116.07-43.98-182.527-60.416 0.307 7.834 0.512 15.82 0.512 23.86 0 97.791-23.45 182.783-57.856 225.894l-15.002-225.895h-72.806l-15.002 225.895c-34.406-43.11-57.856-128.103-57.856-225.895 0-8.038 0.205-15.974 0.512-23.859C490.342 468.019 398.285 463.77 374.272 512c-36.403 73.165-72.806 365.722-36.403 438.835C374.272 1024 410.624 1024 461.67 1024h407.757c50.995 0 87.399 0 123.802-73.165 36.403-73.113 0-365.67-36.403-438.835zM367.77 270.848c0 68.813-24.832 174.438-124.058 174.438S119.706 339.661 119.706 270.848a124.314 124.314 0 0 1 124.006-124.57 124.314 124.314 0 0 1 124.058 124.57z m-14.848 228.403c7.628-15.257 22.016-25.241 40.294-32.307-23.91-5.12-52.02-7.168-75.418-12.954 0.205 5.325 0.359 10.752 0.359 16.23 0 66.612-15.975 124.57-39.424 153.908l-10.24-153.907H218.93l-10.24 153.907c-23.45-29.338-39.424-87.245-39.424-153.907 0-5.479 0.154-10.906 0.359-16.23-45.261 11.161-108.032 8.294-124.365 41.113-24.832 49.869-49.613 249.19-24.832 299.008 24.832 49.869 49.664 49.869 84.377 49.869h196.762c-2.509-116.634 24.422-290.663 51.302-344.73z m858.47-228.352c0 68.762-24.78 174.387-124.006 174.387S963.328 339.661 963.328 270.848a124.314 124.314 0 0 1 124.058-124.57 124.314 124.314 0 0 1 124.006 124.57z m74.445 224.256c-16.384-32.87-79.104-30.003-124.416-41.165 0.256 5.325 0.358 10.752 0.358 16.23 0 66.612-15.923 124.57-39.424 153.908l-10.189-153.907h-49.612l-10.24 153.907c-23.399-29.338-39.373-87.245-39.373-153.907 0-5.479 0.102-10.906 0.358-16.23-23.45 5.785-51.507 7.782-75.417 12.953 18.227 7.066 32.665 17.05 40.243 32.307 26.931 54.067 53.862 228.096 51.353 344.73h196.813c34.714 0 59.546 0 84.327-49.869 24.832-49.818 0-249.14-24.781-299.008z" p-id="3019" fill="#cdcdcd"></path></svg>