<?xml version="1.0" standalone="no"?><!DOCTYPE svg PUBLIC "-//W3C//DTD SVG 1.1//EN" "http://www.w3.org/Graphics/SVG/1.1/DTD/svg11.dtd"><svg t="1573825894194" class="icon" viewBox="0 0 1024 1024" version="1.1" xmlns="http://www.w3.org/2000/svg" p-id="8584" xmlns:xlink="http://www.w3.org/1999/xlink" width="200" height="200"><defs><style type="text/css"></style></defs><path d="M860.88448 898.619408c-10.692526 10.694573-27.625174 10.694573-37.427424 0-5.347798-5.346775-8.020674-12.477172-8.020674-18.7132 0-6.238075 2.672876-13.368472 8.020674-18.715247l88.223321-88.224344H655.030066c-15.151072 0-26.734898-11.583826-26.734898-26.733875s11.583826-26.733874 26.734898-26.733874h255.759011l-88.224344-88.222298c-10.692526-10.69662-10.692526-27.627221 0-37.430494 10.694573-10.692526 27.627221-10.692526 37.429471 0l133.672442 133.671419c10.692526 10.69662 10.692526 27.627221 0 37.430494L860.88448 898.619408z" p-id="8585" fill="#cdcdcd"></path><path d="M21.423427 376.405789v-63.271022c6.239098-15.150048 18.715247-20.4958 32.082696-26.733875 147.038868-66.836221 294.078759-133.672442 441.117626-201.399963 10.69355-5.346775 20.4958-6.238075 32.081673-0.891299 152.386666 68.61882 303.881009 138.126894 456.267674 207.637014 12.476149 6.238075 18.7132 16.041348 19.6045 29.408797v45.448098c0 18.714224-10.69355 28.517497-29.40675 28.517497H939.306574v167.533644h-94.462418v-40.9916H180.048167v378.737904c-14.258749 0-28.516474 0.889253-41.883922 0-15.150048-0.8913-28.517497-8.022721-38.319748-19.6045-10.69355-13.367449-14.257725-28.51852-14.257725-45.449122V393.338437c-9.803273 0-18.714224-0.8913-27.626197 0-16.931624 3.565199-29.407774-1.783623-36.537148-16.932648z m237.045811 19.6045h69.509097c7.129374 0 10.694573-2.672876 10.694573-10.69355v-43.665499c0-7.129374-3.564175-9.803273-10.694573-9.803273H189.850417c-7.128351 0-10.69355 2.673899-9.80225 9.803273v42.7742c0 8.91095 3.564175 11.583826 11.58485 11.583826h66.836221v0.001023z m505.279948 0h69.509097c8.020674 0 11.584849-2.672876 11.584849-10.69355v-42.775222c0-8.019651-3.564175-10.69355-10.692526-10.69355H696.913988c-8.020674 0-10.694573 3.564175-10.694573 11.58485v40.101323c0 8.91095 3.564175 12.475126 12.476149 12.475126h65.053622v0.001023z m-251.303536 0h67.727521c7.129374 0 10.69355-2.672876 10.693549-10.69355v-43.665499c0-7.129374-2.672876-9.803273-9.80225-9.803273H442.936553c-8.020674 0-10.69355 3.564175-10.69355 10.69355v41.884946c0 8.020674 2.672876 11.583826 11.58485 11.583826h68.617797z" p-id="8586" fill="#cdcdcd"></path><path d="M248.665964 588.499301H542.744723c16.932648 0 30.299073 13.367449 30.299073 30.299074s-13.367449 30.299073-30.299073 30.299073H248.665964c-16.930601 0-30.29805-13.367449-30.298049-30.299073s13.367449-30.299073 30.298049-30.299074z m0 96.245018H542.744723c16.932648 0 30.299073 13.367449 30.299073 30.297027 0 16.932648-13.367449 30.299073-30.299073 30.299073H248.665964c-16.930601 0-30.29805-13.367449-30.298049-30.299073 0-16.041348 13.367449-30.297027 30.298049-30.297027z m0 97.134271H542.744723c16.932648 0 30.299073 13.367449 30.299073 30.299074s-13.367449 30.299073-30.299073 30.299073H248.665964c-16.930601 0-30.29805-13.367449-30.298049-30.299073s13.367449-30.299073 30.298049-30.299074z" p-id="8587" fill="#cdcdcd"></path></svg>