<?xml version="1.0" standalone="no"?><!DOCTYPE svg PUBLIC "-//W3C//DTD SVG 1.1//EN" "http://www.w3.org/Graphics/SVG/1.1/DTD/svg11.dtd"><svg t="1573825986938" class="icon" viewBox="0 0 1024 1024" version="1.1" xmlns="http://www.w3.org/2000/svg" p-id="9285" xmlns:xlink="http://www.w3.org/1999/xlink" width="200" height="200"><defs><style type="text/css"></style></defs><path d="M945.604512 427.160753 531.606547 73.67907c-0.343831-0.291642-0.708128-0.551562-1.063215-0.820692-0.607844-0.655939-1.248434-1.290389-1.956561-1.893116-9.945513-8.491395-26.069749-8.491395-36.016285 0L78.399581 424.594301c-9.945513 8.491395-9.945513 22.261003 0 30.752398 9.945513 8.491395 26.069749 8.491395 36.016285 0l32.835849-28.037567 0 443.267593c0 49.060369 39.771819 88.827071 88.832188 88.827071l558.372144 0c49.062416 0 88.828095-39.765679 88.828095-88.827071L883.284141 435.429067l26.314319 22.467711c9.940396 8.490372 26.059516 8.490372 35.999912 0C955.544909 449.4105 955.544909 435.646008 945.604512 427.160753zM605.654007 700.299597c-27.921933 15.927761-57.044204 22.160719-78.279854 18.525935-3.660366 31.239492-8.198729 78.485539-8.198729 120.955816 0 51.674916 6.380314 102.56598 6.380314 102.56598 0 2.184759-0.391926 4.270257-1.079588 6.221702l-36.105313 0c-0.687662-1.951445-1.084705-4.041036-1.084705-6.226818 0 0-6.380314-53.267181-6.380314-106.661252 0-32.883945 2.792603-68.206428 5.761214-96.493681-19.48989 4.148483-47.136553-1.295506-73.592089-16.161075-40.253796-22.60995-62.488193-58.456367-49.67026-80.06757 12.824073-21.61018 55.848982-20.796652 96.101755 1.814322 15.093766 8.479115 27.65178 18.816554 36.777625 29.572526 0.851391-1.434675 1.87265-2.75781 3.057639-3.920286 7.512091-19.917632 27.482935-41.617863 55.282071-57.483202 44.23855-25.245987 91.52246-26.15059 105.609293-2.026146C674.327062 635.033128 649.885394 675.05361 605.654007 700.299597z" p-id="9286" fill="#cdcdcd"></path></svg>