<?xml version="1.0" standalone="no"?><!DOCTYPE svg PUBLIC "-//W3C//DTD SVG 1.1//EN" "http://www.w3.org/Graphics/SVG/1.1/DTD/svg11.dtd"><svg t="1573825857809" class="icon" viewBox="0 0 1024 1024" version="1.1" xmlns="http://www.w3.org/2000/svg" p-id="7169" xmlns:xlink="http://www.w3.org/1999/xlink" width="200" height="200"><defs><style type="text/css"></style></defs><path d="M742.133 855.2c9.6 9.6 24.8 9.6 33.6 0 4.8-4.8 7.2-11.2 7.2-16.8s-2.4-12-7.2-16.8l-79.2-79.2h230.4c13.6 0 24-10.4 24-24s-10.4-24-24-24h-229.6l79.2-79.2c9.6-9.6 9.6-24.8 0-33.6-9.6-9.6-24.8-9.6-33.6 0l-120 120c-9.6 9.6-9.6 24.8 0 33.6l119.2 120z" fill="#cdcdcd" p-id="7170"></path><path d="M70.933 386.4v-56.8c5.6-13.6 16.8-18.4 28.8-24 132-60 264-120 396-180.8 9.6-4.8 18.4-5.6 28.8-0.8 136.8 61.6 272.8 124 409.6 186.4 11.2 5.6 16.8 14.4 17.6 26.4v40.8c0 16.8-9.6 25.6-26.4 25.6h-30.4v150.4h-84.8v-36.8h-596.8v340c-12.8 0-25.6 0.8-37.6 0-13.6-0.8-25.6-7.2-34.4-17.6-9.6-12-12.8-25.6-12.8-40.8v-396.8c-8.8 0-16.8-0.8-24.8 0-15.2 3.2-26.4-1.6-32.8-15.2zM283.733 404h62.4c6.4 0 9.6-2.4 9.6-9.6v-39.2c0-6.4-3.2-8.8-9.6-8.8h-124c-6.4 0-9.6 2.4-8.8 8.8v38.4c0 8 3.2 10.4 10.4 10.4h60zM737.333 404h62.4c7.2 0 10.4-2.4 10.4-9.6v-38.4c0-7.2-3.2-9.6-9.6-9.6h-123.2c-7.2 0-9.6 3.2-9.6 10.4v36c0 8 3.2 11.2 11.2 11.2h58.4zM511.733 404h60.8c6.4 0 9.6-2.4 9.6-9.6v-39.2c0-6.4-2.4-8.8-8.8-8.8h-124c-7.2 0-9.6 3.2-9.6 9.6v37.6c0 7.2 2.4 10.4 10.4 10.4h61.6z" fill="#cdcdcd" p-id="7171"></path><path d="M274.933 576.8h264c15.2 0 27.2 12 27.2 27.2s-12 27.2-27.2 27.2h-264c-15.2 0-27.2-12-27.2-27.2s12-27.2 27.2-27.2zM274.933 663.2h264c15.2 0 27.2 12 27.2 27.2s-12 27.2-27.2 27.2h-264c-15.2 0-27.2-12-27.2-27.2 0-14.4 12-27.2 27.2-27.2zM274.933 750.4h264c15.2 0 27.2 12 27.2 27.2s-12 27.2-27.2 27.2h-264c-15.2 0-27.2-12-27.2-27.2s12-27.2 27.2-27.2z" fill="#cdcdcd" p-id="7172"></path></svg>