<?xml version="1.0" standalone="no"?><!DOCTYPE svg PUBLIC "-//W3C//DTD SVG 1.1//EN" "http://www.w3.org/Graphics/SVG/1.1/DTD/svg11.dtd"><svg t="1573829131088" class="icon" viewBox="0 0 1024 1024" version="1.1" xmlns="http://www.w3.org/2000/svg" p-id="12797" xmlns:xlink="http://www.w3.org/1999/xlink" width="200" height="200"><defs><style type="text/css"></style></defs><path d="M190.9 843.5h211.4V420.6L190.9 615.1zM444.6 420.6v422.9h211.5V459.6l-84.6 77.7zM698.4 843.5h211.5V252.9L698.4 447.4z" p-id="12798" fill="#cdcdcd"></path><path d="M418.2 301.7l153.3 140 302.3-276.6 77.5 71.7-1.9-171-186.8 0.8 72.8 67L571.2 377 415.3 233 177.5 451l39.8 35.5z" p-id="12799" fill="#cdcdcd"></path><path d="M96 960c-17.6 0-32-14.4-32-32V96c0-17.6 14.4-32 32-32s32 14.4 32 32v832c0 17.6-14.4 32-32 32z" p-id="12800" fill="#cdcdcd"></path><path d="M959.6 928.2c0 17.6-14.4 32-32 32h-832c-17.6 0-32-14.4-32-32s14.4-32 32-32h832c17.6 0 32 14.4 32 32z" p-id="12801" fill="#cdcdcd"></path></svg>