<?xml version="1.0" standalone="no"?><!DOCTYPE svg PUBLIC "-//W3C//DTD SVG 1.1//EN" "http://www.w3.org/Graphics/SVG/1.1/DTD/svg11.dtd"><svg t="1573693500491" class="icon" viewBox="0 0 1024 1024" version="1.1" xmlns="http://www.w3.org/2000/svg" p-id="1558" xmlns:xlink="http://www.w3.org/1999/xlink" width="200" height="200"><defs><style type="text/css"></style></defs><path d="M921.6 0H102.4A102.698667 102.698667 0 0 0 0 102.4v819.2a102.698667 102.698667 0 0 0 102.4 102.4h819.2a102.698667 102.698667 0 0 0 102.4-102.4V102.4a102.698667 102.698667 0 0 0-102.4-102.4z m-152.96 410.325333a416.768 416.768 0 0 1-11.818667 99.626667 242.176 242.176 0 0 1-12.8 46.549333c-3.925333 11.733333-8.533333 23.082667-13.312 34.133334a362.24 362.24 0 0 1-36.992 64.469333l-67.584-67.626667c36.693333-53.034667 32.64-126.464-12.245333-171.392a132.736 132.736 0 0 0-187.733333 187.733334c24.448 24.490667 61.184 40.789333 93.866666 40.789333a134.058667 134.058667 0 0 0 77.525334-24.490667l68.736 68.736c-40.448 44.16-92.373333 79.616-154.410667 106.666667-102.698667-44.928-177.664-112.597333-218.837333-204.8a372.437333 372.437333 0 0 1-13.312-34.133333 242.176 242.176 0 0 1-12.8-46.549334 416.768 416.768 0 0 1-11.818667-99.626666v-4.010667c0-18.944 1.237333-35.754667 2.645333-50.048v-1.706667-1.450666c0.213333-2.176 0.426667-4.266667 0.682667-6.357334L512 228.394667l252.970667 118.357333c0.256 2.048 0.469333 4.266667 0.682666 6.357333v3.157334c1.408 14.293333 2.602667 31.104 2.645334 50.048z m-183.168 164.906667a99.242667 99.242667 0 0 1-130.602667 0 91.093333 91.093333 0 0 1 0-130.56 96.213333 96.213333 0 0 1 65.28-28.586667c24.490667 0 48.981333 8.192 65.322667 28.586667a91.178667 91.178667 0 0 1 0 130.56z" p-id="1559" fill="#cdcdcd"></path></svg>