<?xml version="1.0" standalone="no"?><!DOCTYPE svg PUBLIC "-//W3C//DTD SVG 1.1//EN" "http://www.w3.org/Graphics/SVG/1.1/DTD/svg11.dtd"><svg t="1573825564265" class="icon" viewBox="0 0 1024 1024" version="1.1" xmlns="http://www.w3.org/2000/svg" p-id="4615" xmlns:xlink="http://www.w3.org/1999/xlink" width="200" height="200"><defs><style type="text/css"></style></defs><path d="M1018.652444 807.537778a49.265778 49.265778 0 0 1-52.963555-23.153778 47.900444 47.900444 0 0 1 6.599111-56.718222 167.936 167.936 0 0 0-68.380444-39.537778 48.924444 48.924444 0 0 1-46.819556 33.735111 48.810667 48.810667 0 0 1-46.478222-34.133333 167.822222 167.822222 0 0 0-68.721778 38.798222c13.937778 15.246222 17.237333 38.115556 6.144 56.888889a49.208889 49.208889 0 0 1-53.191111 22.641778 158.264889 158.264889 0 0 0-0.341333 78.165333 49.265778 49.265778 0 0 1 52.963555 23.096889c10.979556 18.773333 7.395556 41.585778-6.599111 56.775111 19.057778 18.090667 42.382222 31.857778 68.380444 39.480889a48.924444 48.924444 0 0 1 46.819556-33.678222 48.810667 48.810667 0 0 1 46.478222 34.133333 167.822222 167.822222 0 0 0 68.721778-38.798222 48.014222 48.014222 0 0 1-6.144-56.888889 49.208889 49.208889 0 0 1 53.191111-22.641778 158.264889 158.264889 0 0 0 0.341333-78.165333z m-162.247111 101.717333a63.715556 63.715556 0 0 1-63.886222-63.715555 63.829333 63.829333 0 0 1 64.455111-63.089778 63.715556 63.715556 0 0 1 63.943111 63.715555 63.943111 63.943111 0 0 1-64.512 63.146667z m-314.595555-263.168c-73.784889 32.028444-161.962667 86.471111-161.962667 164.067556v17.863111c0 33.564444 13.425778 58.936889 34.304 78.392889a1704.391111 1704.391111 0 0 1-68.266667 1.365333C180.906667 907.776 0 887.182222 0 796.444444v-24.974222c0-66.673778 124.984889-134.257778 228.693333-171.235555 7.509333-2.730667 44.942222-21.162667 24.917334-73.045334-2.730667-2.730667-5.233778-5.575111-7.850667-8.419555-69.973333-39.196444-99.726222-120.035556-111.900444-192.170667-15.587556-4.892444-30.549333-21.333333-37.489778-43.804444-9.443556-30.72-0.341333-60.700444 20.48-66.958223a27.363556 27.363556 0 0 1 9.102222-1.024c0.398222-17.294222 1.422222-27.875556 1.422222-27.875555C127.374222 84.024889 212.48 0 316.472889 0h56.888889C477.297778 0 562.460444 84.081778 562.460444 186.823111c0 0 1.024 10.638222 1.365334 27.932445a27.363556 27.363556 0 0 1 9.102222 1.024c1.706667 0.568889 3.072 1.365333 4.551111 2.161777a195.811556 195.811556 0 0 0-105.699555 157.127111c-23.495111 24.689778-32.256 63.772444-20.138667 103.082667 2.958222 9.557333 7.168 18.602667 12.060444 26.737778-3.754667 2.844444-7.281778 5.973333-11.264 8.590222-3.128889 3.299556-6.200889 6.712889-9.386666 10.012445h0.227555c-19.569778 63.374222 11.093333 73.955556 16.099556 75.548444 21.276444 7.054222 43.064889 15.246222 64.341333 24.462222 5.575111 7.964444 11.662222 15.644444 18.147556 22.584889z m156.899555 35.441778c-17.408 16.270222-23.893333 41.130667-16.611555 63.772444-22.755556 4.721778-42.040889 21.902222-48.071111 45.681778a220.728889 220.728889 0 0 0-0.455111 107.918222c0.682667 2.730667 2.048 5.12 3.072 7.850667-100.465778-4.551111-193.934222-23.438222-193.934223-78.734222v-17.863111c0-47.786667 89.543111-96.142222 163.84-122.709334 5.347556-1.934222 32.256-15.132444 17.92-52.337777-2.503111-2.332444-4.835556-4.949333-7.111111-7.452445-48.867556-28.615111-70.030222-85.333333-78.677333-136.419555-11.207111-3.527111-22.016-15.132444-26.908445-31.175112-6.712889-22.016-0.227556-43.52 14.677334-47.957333 2.048-0.568889 4.323556-0.113778 6.485333 0 0.227556-12.686222 0.910222-20.650667 0.910222-20.650667 0-73.614222 61.098667-133.859556 135.623111-133.859555h40.789334c74.581333 0 135.566222 60.302222 135.566222 133.859555 0 0 0.682667 7.964444 0.910222 20.650667 2.161778-0.113778 4.323556-0.682667 6.485334 0 14.904889 4.437333 21.504 25.941333 14.677333 47.957333-4.892444 15.928889-15.701333 27.648-26.851556 31.175112-8.362667 49.265778-28.273778 104.049778-73.614222 133.461333a458.752 458.752 0 0 1-7.281778 7.850667h0.227556c-1.024 3.413333-1.479111 6.144-2.161778 9.102222-21.788444 10.24-41.927111 23.495111-59.505778 39.822222z" p-id="4616" fill="#cdcdcd"></path></svg>