<?xml version="1.0" standalone="no"?><!DOCTYPE svg PUBLIC "-//W3C//DTD SVG 1.1//EN" "http://www.w3.org/Graphics/SVG/1.1/DTD/svg11.dtd"><svg t="1573826104243" class="icon" viewBox="0 0 1025 1024" version="1.1" xmlns="http://www.w3.org/2000/svg" p-id="10693" xmlns:xlink="http://www.w3.org/1999/xlink" width="200.1953125" height="200"><defs><style type="text/css"></style></defs><path d="M993.3072 473.6L574.1072 54.4C538.9072 19.2 484.5072 19.2 449.3072 54.4L30.1072 473.6c-35.2 35.2-44.8 102.4 0 124.8 25.6 12.8 44.8 22.4 76.8 32v262.4c0 57.6 38.4 105.6 83.2 105.6h371.2v-124.8c0-70.4 64-124.8 108.8-124.8s102.4 57.6 102.4 124.8v124.8h67.2c44.8 0 83.2-48 83.2-105.6v-265.6c32-9.6 48-16 70.4-28.8 44.8-19.2 35.2-89.6 0-124.8z m0 0" p-id="10694" fill="#cdcdcd"></path></svg>